<svg width="40px" height="40px" viewBox="0 0 24 24" version="1.1" xmlns="http://www.w3.org/2000/svg" xmlns:xlink="http://www.w3.org/1999/xlink" fill="#000000"><g id="SVGRepo_bgCarrier" stroke-width="0"></g><g id="SVGRepo_tracerCarrier" stroke-linecap="round" stroke-linejoin="round"></g><g id="SVGRepo_iconCarrier"> <title></title> <desc></desc> <g fill="none" fill-rule="evenodd" id="Coffee-Mug" stroke="none" stroke-width="1"> <g id="Group" stroke="#b59c85" stroke-width="2" transform="translate(4.000000, 4.000000)"> <path d="M11,5 L1,5 C0.44771525,5 -0.0522847498,5.22385763 -0.414213562,5.58578644 C-0.776142375,5.94771525 -1,6.44771525 -1,7 L-1,11 C-1,12.6568542 -0.328427125,14.1568542 0.757359313,15.2426407 C1.84314575,16.3284271 3.34314575,17 5,17 L7,17 C8.65685425,17 10.1568542,16.3284271 11.2426407,15.2426407 C12.3284271,14.1568542 13,12.6568542 13,11 L13,7 C13,6.44771525 12.7761424,5.94771525 12.4142136,5.58578644 C12.0522847,5.22385763 11.5522847,5 11,5 Z" id="Rectangle"></path> <path d="M17,7 L13,7 L13,9 C13,9.55228475 13.2238576,10.0522847 13.5857864,10.4142136 C13.9477153,10.7761424 14.4477153,11 15,11 C15.5522847,11 16.0522847,10.7761424 16.4142136,10.4142136 C16.7761424,10.0522847 17,9.55228475 17,9 L17,7 Z" id="Rectangle" transform="translate(15.000000, 9.000000) rotate(-90.000000) translate(-15.000000, -9.000000) "></path> <line id="Path-5" stroke-linecap="round" x1="2" x2="2" y1="2" y2="0"></line> <line id="Path-5-Copy" stroke-linecap="round" x1="10" x2="10" y1="2" y2="0"></line> <line id="Path-5-Copy-2" stroke-linecap="round" x1="6" x2="6" y1="2" y2="0"></line> </g> </g> </g></svg>
